<svg width="116" height="120" viewBox="0 0 116 120" fill="none" xmlns="http://www.w3.org/2000/svg">
<path d="M115.4 68.4L107.3 56.3C106.6 55.3 105.2 55.3 104.5 56.3L96.5 68.4C95.8 69.5 96.6 71 97.9 71H101.5C98.9 83 87.9 92.3 73.5 96C68 97.4 61.9 93.5 61.9 87.7V54H73.3C75.9 54 78.1 51.6 78.1 49C78.1 46.4 75.9 44 73.3 44H62V34.9C70 33 75.3 26.1 75.3 17.9C75.3 8.20002 67.5 0.400024 57.8 0.400024C48.1 0.400024 40.3 8.30002 40.3 17.9C40.3 25.9 46 32.6 53 34.8V44H42.6C40 44 37.8 46.4 37.8 49C37.8 51.6 40 54 42.6 54H53V87.6C53 93.6 45.6 97.2 39.9 95.4C27 91.2 17.5 82 15.1 71H18.1C19.4 71 20.2 69.5 19.5 68.4L11.4 56.3C10.7 55.3 9.30005 55.3 8.60005 56.3L0.600045 68.4C-0.099955 69.5 0.700045 71 2.00005 71H5.40004C7.70004 88 22.8 102.2 42.4 107.2C46.4 108.2 49.9 110.4 52.3 113.8L55.1 119C56 120.2 59.1 120.2 60 119L62.4 114.4C64.9 111 68.5 108 72.7 107.1C93.4 102.7 108.8 89.1 111.1 71.1H114.1C115.3 71 116.1 69.5 115.4 68.4V68.4ZM48.1 17.9C48.1 12.5 52.5 8.10002 57.9 8.10002C63.3 8.10002 67.7 12.5 67.7 17.9C67.7 23.3 63.3 27.7 57.9 27.7C52.5 27.7 48.1 23.3 48.1 17.9V17.9Z" fill="#1070A8"/>
</svg>
