<svg width="116" height="120" viewBox="0 0 116 120" fill="none" xmlns="http://www.w3.org/2000/svg">
<path d="M115.059 68L106.959 55.9C106.259 54.9 104.859 54.9 104.159 55.9L96.1595 68C95.4595 69.1 96.2595 70.6 97.5595 70.6H101.159C98.5595 82.6 87.5595 91.9 73.1595 95.6C67.6595 97 61.5595 93.1 61.5595 87.3V53.6H72.9595C75.5595 53.6 77.7595 51.2 77.7595 48.6C77.7595 46 75.5595 43.6 72.9595 43.6H61.6595V34.5C69.6595 32.6 74.9595 25.7 74.9595 17.5C74.9595 7.8 67.1595 0 57.4595 0C47.7595 0 39.9595 7.9 39.9595 17.5C39.9595 25.5 45.6595 32.2 52.6595 34.4V43.6H42.2595C39.6595 43.6 37.4595 46 37.4595 48.6C37.4595 51.2 39.6595 53.6 42.2595 53.6H52.6595V87.2C52.6595 93.2 45.2595 96.8 39.5595 95C26.6595 90.8 17.1595 81.6 14.7595 70.6H17.7595C19.0595 70.6 19.8595 69.1 19.1595 68L11.0595 55.9C10.3595 54.9 8.95947 54.9 8.25947 55.9L0.259469 68C-0.440531 69.1 0.359469 70.6 1.65947 70.6H5.05947C7.35947 87.6 22.4595 101.8 42.0595 106.8C46.0595 107.8 49.5595 110 51.9595 113.4L54.7595 118.6C55.6595 119.8 58.7595 119.8 59.6595 118.6L62.0595 114C64.5595 110.6 68.1595 107.6 72.3595 106.7C93.0595 102.3 108.459 88.7 110.759 70.7H113.759C114.959 70.6 115.759 69.1 115.059 68V68ZM47.7595 17.5C47.7595 12.1 52.1595 7.7 57.5595 7.7C62.9595 7.7 67.3595 12.1 67.3595 17.5C67.3595 22.9 62.9595 27.3 57.5595 27.3C52.1595 27.3 47.7595 22.9 47.7595 17.5V17.5Z" fill="white"/>
</svg>
