<svg width="62" height="62" viewBox="0 0 62 62" fill="none" xmlns="http://www.w3.org/2000/svg">
<rect width="62" height="62" fill="#1070A8"/>
<path d="M55.142 34.4519L51.7529 29.3891C51.46 28.9707 50.8743 28.9707 50.5814 29.3891L47.2341 34.4519C46.9412 34.9121 47.2759 35.5397 47.8199 35.5397H49.3261C48.2383 40.5607 43.6358 44.4519 37.6107 46C35.3094 46.5858 32.7571 44.954 32.7571 42.5272V28.4268H37.527C38.6148 28.4268 39.5353 27.4226 39.5353 26.3347C39.5353 25.2469 38.6148 24.2427 37.527 24.2427H32.7989V20.4351C36.1462 19.6402 38.3638 16.7531 38.3638 13.3222C38.3638 9.2636 35.1002 6 31.0416 6C26.983 6 23.7194 9.30544 23.7194 13.3222C23.7194 16.6695 26.1044 19.4728 29.0333 20.3933V24.2427H24.6818C23.5939 24.2427 22.6734 25.2469 22.6734 26.3347C22.6734 27.4226 23.5939 28.4268 24.6818 28.4268H29.0333V42.4854C29.0333 44.9958 25.937 46.5021 23.5521 45.749C18.1546 43.9916 14.1797 40.1423 13.1755 35.5397H14.4307C14.9747 35.5397 15.3094 34.9121 15.0165 34.4519L11.6274 29.3891C11.3345 28.9707 10.7487 28.9707 10.4558 29.3891L7.10856 34.4519C6.81568 34.9121 7.15041 35.5397 7.69434 35.5397H9.11693C10.0793 42.6527 16.3973 48.5941 24.5981 50.6862C26.2717 51.1046 27.7362 52.0251 28.7404 53.4477L29.9119 55.6234C30.2885 56.1255 31.5856 56.1255 31.9621 55.6234L32.9663 53.6987C34.0123 52.2761 35.5186 51.0209 37.2759 50.6443C45.937 48.8033 52.3805 43.113 53.3429 35.5816H54.5981C55.1002 35.5397 55.4349 34.9121 55.142 34.4519V34.4519ZM26.983 13.3222C26.983 11.0628 28.824 9.22176 31.0835 9.22176C33.3429 9.22176 35.1839 11.0628 35.1839 13.3222C35.1839 15.5816 33.3429 17.4226 31.0835 17.4226C28.824 17.4226 26.983 15.5816 26.983 13.3222V13.3222Z" fill="white"/>
</svg>
