<svg width="50" height="51" viewBox="0 0 50 51" fill="none" xmlns="http://www.w3.org/2000/svg">
<path d="M25.0834 0.8125C38.8478 0.8125 50 12.002 50 25.8125C50 39.623 38.8478 50.8125 25.0834 50.8125C11.319 50.8125 0.166851 39.623 0.166851 25.8125C0.166851 12.002 11.319 0.8125 25.0834 0.8125ZM25.0834 10.4899C20.2006 10.4899 16.2421 14.4617 16.2421 19.3609C16.2421 24.2601 20.2006 28.2319 25.0834 28.2319C29.9663 28.2319 33.9248 24.2601 33.9248 19.3609C33.9248 14.4617 29.9663 10.4899 25.0834 10.4899ZM25.0834 45.1673C30.981 45.1673 36.2657 42.4859 39.8023 38.2923C37.9135 34.7238 34.2162 32.2641 29.906 32.2641C29.6649 32.2641 29.4237 32.3044 29.1927 32.375C27.8865 32.7984 26.5201 33.0706 25.0834 33.0706C23.6467 33.0706 22.2703 32.7984 20.9742 32.375C20.7431 32.3044 20.502 32.2641 20.2609 32.2641C15.9507 32.2641 12.2534 34.7238 10.3646 38.2923C13.9011 42.4859 19.1858 45.1673 25.0834 45.1673Z" fill="#1070A8"/>
</svg>
