<svg width="500" height="53" viewBox="0 0 500 53" fill="none" xmlns="http://www.w3.org/2000/svg">
<g clip-path="url(#clip0)">
<path d="M353.5 27.2618C254.5 4.41567 197.5 -2.73819 140 14.7618V49.7618H640V27.2618C577.167 37.7618 506.5 62.5694 353.5 27.2618Z" fill="#1070A8"/>
<path d="M353.5 30.2618C254.5 7.41567 197.5 0.26181 140 17.7618V52.7618H640V30.2618C577.167 40.7618 506.5 65.5694 353.5 30.2618Z" fill="white"/>
<path d="M213.5 27.2618C114.5 4.41567 57.5 -2.73819 0 14.7618V49.7618H500V27.2618C437.167 37.7618 366.5 62.5694 213.5 27.2618Z" fill="#1070A8"/>
<path d="M213.5 30.2618C114.5 7.41567 57.5 0.26181 0 17.7618V52.7618H500V30.2618C437.167 40.7618 366.5 65.5694 213.5 30.2618Z" fill="#D8E3EC"/>
</g>
<defs>
<clipPath id="clip0">
<rect width="500" height="53" fill="white"/>
</clipPath>
</defs>
</svg>
