<svg width="496" height="45" viewBox="0 0 496 45" fill="none" xmlns="http://www.w3.org/2000/svg">
<g clip-path="url(#clip0)">
<path d="M351.5 22.2618C252.5 -0.584329 195.5 -7.73819 138 9.7618V44.7618H638V22.2618C575.167 32.7618 504.5 57.5694 351.5 22.2618Z" fill="#1070A8"/>
<path d="M351.5 25.2618C252.5 2.41567 195.5 -4.73819 138 12.7618V47.7618H638V25.2618C575.167 35.7618 504.5 60.5694 351.5 25.2618Z" fill="white"/>
<path d="M211.5 22.2618C112.5 -0.584329 55.5 -7.73819 -2 9.7618V44.7618H498V22.2618C435.167 32.7618 364.5 57.5694 211.5 22.2618Z" fill="#1070A8"/>
<path d="M211.5 25.2618C112.5 2.41567 55.5 -4.73819 -2 12.7618V47.7618H498V25.2618C435.167 35.7618 364.5 60.5694 211.5 25.2618Z" fill="#D8E3EC"/>
</g>
<defs>
<clipPath id="clip0">
<rect width="500" height="53" fill="white" transform="translate(-2 -5)"/>
</clipPath>
</defs>
</svg>
