<svg width="500" height="51" viewBox="0 0 500 51" fill="none" xmlns="http://www.w3.org/2000/svg">
<g clip-path="url(#clip0)">
<path d="M307.5 21.2765C193.9 -11.824 68.5 7.48462 20 21.2765V50H520V29.4832C496.5 40.5395 421.1 54.3769 307.5 21.2765Z" fill="#1070A8"/>
<path d="M307.5 22.2765C193.9 -10.824 68.5 8.48462 20 22.2765V51H520V30.4832C496.5 41.5395 421.1 55.3769 307.5 22.2765Z" fill="#D8E3EC"/>
<path d="M287.5 21.2765C173.9 -11.824 48.5 7.48462 0 21.2765V50H500V29.4832C476.5 40.5395 401.1 54.3769 287.5 21.2765Z" fill="#1070A8"/>
<path d="M287.5 22.2765C173.9 -10.824 48.5 8.48462 0 22.2765V51H500V30.4832C476.5 41.5395 401.1 55.3769 287.5 22.2765Z" fill="white"/>
</g>
<defs>
<clipPath id="clip0">
<rect width="500" height="51" fill="white"/>
</clipPath>
</defs>
</svg>
